<?xml version="1.0" encoding="UTF-8" ?>
<!DOCTYPE svg PUBLIC "-//W3C//DTD SVG 1.1//EN" "http://www.w3.org/Graphics/SVG/1.1/DTD/svg11.dtd">
<svg width="1024pt" height="1024pt" viewBox="0 0 1024 1024" version="1.1" xmlns="http://www.w3.org/2000/svg">
<g id="#99999999">
<path fill="#ffffff" opacity="0.60" d=" M 272.53 146.13 C 324.51 146.24 376.50 146.71 428.48 146.56 L 428.43 147.53 C 459.59 147.37 490.75 147.72 521.90 147.73 C 525.94 147.85 530.02 147.36 534.01 148.16 C 537.61 147.34 541.31 147.81 544.95 148.16 C 549.31 148.65 553.63 147.37 558.00 147.83 C 564.64 148.63 571.35 148.20 578.03 148.35 C 618.02 148.57 658.01 148.70 698.00 148.81 C 700.60 153.04 702.81 157.50 705.29 161.80 C 705.83 162.92 706.46 164.00 707.05 165.10 C 707.73 166.82 709.58 168.07 709.35 170.11 C 699.79 183.69 690.41 197.40 681.00 211.09 C 676.21 217.86 671.62 224.77 666.80 231.52 C 658.68 243.45 650.46 255.33 642.22 267.18 C 626.56 290.02 610.71 312.72 595.08 335.58 C 565.27 335.63 535.47 335.43 505.67 335.08 C 503.52 363.73 501.64 392.41 499.50 421.05 C 500.55 426.05 504.26 430.04 506.54 434.56 C 510.75 434.64 514.96 434.63 519.17 434.49 C 520.42 423.31 522.06 412.14 524.63 401.18 C 527.05 390.30 534.06 380.05 544.40 375.37 C 552.35 371.09 561.44 369.54 570.40 370.44 C 567.88 375.62 564.18 380.06 561.04 384.84 C 526.01 435.50 491.15 486.26 456.03 536.85 L 455.80 537.16 C 413.88 536.91 371.94 537.16 330.01 537.07 C 331.03 535.40 332.12 533.78 333.25 532.19 C 338.39 524.60 343.65 517.09 348.79 509.51 C 415.51 412.06 482.22 314.61 548.97 217.18 C 551.96 212.48 555.51 208.13 558.21 203.24 C 535.15 203.12 512.09 203.66 489.02 203.65 C 475.06 204.90 461.01 204.42 447.00 204.63 C 428.37 206.03 409.65 205.34 390.97 205.69 C 385.02 205.92 379.02 205.37 373.11 206.25 C 368.55 206.59 364.03 207.27 359.47 207.66 L 359.54 208.31 C 357.26 208.66 355.01 209.13 352.78 209.67 C 347.88 212.00 342.54 213.33 337.84 216.11 C 333.75 218.54 329.56 220.88 325.88 223.91 C 319.27 229.82 314.55 237.48 310.15 245.09 C 309.41 246.74 308.81 248.44 308.20 250.14 C 307.77 251.09 307.37 252.07 307.00 253.05 C 306.76 254.53 306.53 256.01 306.36 257.50 L 305.58 257.52 C 305.47 258.70 305.36 259.87 305.25 261.05 C 303.45 267.95 301.90 274.95 301.15 282.04 C 299.93 286.42 299.35 290.96 299.37 295.51 L 298.60 295.47 C 298.45 300.18 297.21 304.80 297.40 309.53 L 296.59 309.52 C 296.06 312.01 297.52 315.49 295.28 317.30 C 288.44 317.72 281.58 317.35 274.74 317.49 C 270.52 311.19 267.08 304.43 263.09 297.99 C 261.75 295.07 262.46 291.79 262.59 288.72 C 264.08 283.55 263.11 278.10 263.71 272.81 C 264.74 267.76 264.29 262.57 264.59 257.46 L 265.39 257.51 C 265.39 252.33 265.40 247.13 265.84 241.96 C 266.97 237.39 265.90 232.58 267.19 228.03 C 267.51 223.94 267.36 219.82 267.71 215.73 C 269.20 210.28 267.82 204.53 269.17 199.05 C 269.50 194.97 269.35 190.88 269.63 186.80 C 271.18 181.99 270.07 176.85 270.77 171.91 C 271.65 166.47 271.41 160.95 271.58 155.46 L 272.42 155.55 C 272.42 152.40 272.49 149.27 272.53 146.13 Z" />
</g>
<g id="#80808080">
<path fill="#ffffff" opacity="0.50" d=" M 774.59 316.10 C 814.79 316.34 854.99 316.64 895.19 316.80 C 896.30 318.74 897.39 320.69 898.49 322.65 C 863.52 372.14 829.11 422.02 793.93 471.36 C 806.65 471.58 819.35 470.51 832.08 470.48 C 842.72 470.44 853.35 469.88 863.99 469.69 C 871.11 469.74 877.86 465.45 881.76 459.63 C 886.92 453.10 889.36 445.01 891.86 437.20 C 895.19 438.17 898.53 439.13 901.91 440.00 C 898.85 455.98 895.54 471.90 892.39 487.86 C 851.37 487.95 810.35 487.87 769.32 487.90 C 769.35 477.93 769.32 467.96 769.32 457.99 C 769.18 456.67 769.66 455.48 770.45 454.46 C 798.96 413.57 827.35 372.60 855.87 331.71 C 838.58 332.22 821.29 332.50 804.00 332.79 C 796.35 332.89 788.16 336.65 785.08 344.03 C 782.65 350.32 782.16 357.16 781.21 363.78 C 779.14 363.79 777.09 363.80 775.04 363.80 C 773.89 361.84 772.73 359.89 771.56 357.96 C 772.67 344.01 773.55 330.05 774.59 316.10 Z" />
</g>
<g id="#ffffffff">
<path fill="#ffffff" opacity="1.00" d=" M 505.67 335.08 C 535.47 335.43 565.27 335.63 595.08 335.58 C 608.09 335.67 621.11 335.71 634.13 335.83 C 634.67 335.97 635.76 336.27 636.30 336.41 L 636.98 335.28 L 638.03 336.78 L 638.71 335.60 C 640.07 336.11 641.49 336.33 642.96 336.24 C 680.33 336.17 717.69 336.70 755.06 336.75 C 757.31 340.57 759.13 344.64 761.74 348.24 C 756.43 356.92 750.17 365.01 744.50 373.46 C 706.34 428.27 668.14 483.06 630.02 537.89 C 620.21 551.80 610.48 565.77 600.84 579.80 C 576.21 580.15 551.55 580.13 526.92 579.81 C 536.90 565.68 546.69 551.41 556.46 537.12 C 579.84 503.34 603.17 469.52 626.54 435.72 C 642.06 413.00 658.03 390.58 673.30 367.69 C 670.18 367.70 667.06 367.72 663.94 367.84 C 649.03 369.14 633.96 367.85 619.05 369.15 C 603.71 369.46 588.36 369.49 573.03 369.83 C 572.15 370.05 571.27 370.26 570.40 370.44 C 561.44 369.54 552.35 371.09 544.40 375.37 C 534.06 380.05 527.05 390.30 524.63 401.18 C 522.06 412.14 520.42 423.31 519.17 434.49 C 514.96 434.63 510.75 434.64 506.54 434.56 C 504.26 430.04 500.55 426.05 499.50 421.05 C 501.64 392.41 503.52 363.73 505.67 335.08 Z" />
</g>
<g id="#f5c32cff">
<path fill="#f5c32c" opacity="1.00" d=" M 229.13 553.05 C 242.49 547.11 256.06 541.64 269.57 536.06 L 269.53 536.21 C 265.24 542.42 261.56 549.01 257.26 555.22 C 251.82 563.32 246.32 571.41 241.84 580.10 C 243.28 580.05 244.74 579.99 246.19 579.93 C 243.56 580.63 240.95 581.45 238.41 582.44 C 220.19 590.00 202.13 597.96 183.92 605.57 C 196.76 590.18 209.50 574.70 222.23 559.21 C 224.28 556.92 226.18 554.24 229.13 553.05 Z" />
<path fill="#f5c32c" opacity="1.00" d=" M 758.33 544.55 C 756.73 542.32 755.59 539.78 755.20 537.05 C 766.23 541.43 777.12 546.16 788.14 550.59 C 791.99 552.27 796.42 553.35 799.20 556.75 C 812.83 573.02 826.38 589.36 840.09 605.57 C 821.57 598.16 803.21 590.34 784.72 582.85 C 783.97 582.20 783.24 581.56 782.52 580.92 C 773.99 569.12 766.39 556.67 758.33 544.55 Z" />
</g>
<g id="#ecb024ff">
<path fill="#ecb024" opacity="1.00" d=" M 269.57 536.06 L 269.74 535.47 C 270.57 536.48 271.63 536.94 272.92 536.84 C 291.90 537.02 310.88 537.15 329.87 537.07 C 320.20 551.37 310.62 565.74 300.54 579.75 C 290.67 579.19 280.78 579.59 270.91 579.49 C 270.84 567.32 270.94 555.16 270.88 542.99 C 270.87 540.66 270.13 538.43 269.53 536.21 L 269.57 536.06 Z" />
<path fill="#ecb024" opacity="1.00" d=" M 455.80 537.16 L 456.03 536.85 C 489.50 537.45 522.99 536.76 556.46 537.12 C 546.69 551.41 536.90 565.68 526.92 579.81 C 503.28 579.25 479.61 579.73 455.96 579.57 C 446.18 579.66 436.40 579.35 426.63 579.74 C 436.11 565.38 446.15 551.41 455.80 537.16 Z" />
<path fill="#ecb024" opacity="1.00" d=" M 630.54 537.45 C 633.24 536.61 636.15 537.24 638.95 537.07 C 676.47 536.90 714.00 537.44 751.51 536.72 C 752.18 550.98 751.79 565.25 752.04 579.52 C 701.64 579.68 651.23 579.24 600.84 579.80 C 610.48 565.77 620.21 551.80 630.02 537.89 L 630.54 537.45 Z" />
</g>
<g id="#dfa510ff">
<path fill="#dfa510" opacity="1.00" d=" M 751.51 536.72 C 752.69 536.29 753.92 536.46 755.13 536.73 L 755.20 537.05 C 755.59 539.78 756.73 542.32 758.33 544.55 C 766.39 556.67 773.99 569.12 782.52 580.92 C 780.15 579.88 777.57 579.52 775.01 579.54 C 767.35 579.51 759.69 579.49 752.04 579.52 C 751.79 565.25 752.18 550.98 751.51 536.72 Z" />
<path fill="#dfa510" opacity="1.00" d=" M 269.53 536.21 C 270.13 538.43 270.87 540.66 270.88 542.99 C 270.94 555.16 270.84 567.32 270.91 579.49 C 262.67 579.69 254.41 579.20 246.19 579.93 C 244.74 579.99 243.28 580.05 241.84 580.10 C 246.32 571.41 251.82 563.32 257.26 555.22 C 261.56 549.01 265.24 542.42 269.53 536.21 Z" />
</g>
<g id="#f7dfa7ff">
<path fill="#f7dfa7" opacity="1.00" d=" M 329.87 537.07 L 330.01 537.07 C 371.94 537.16 413.88 536.91 455.80 537.16 C 446.15 551.41 436.11 565.38 426.63 579.74 C 406.08 580.35 385.51 579.84 364.96 580.01 C 343.49 579.84 322.00 580.35 300.54 579.75 C 310.62 565.74 320.20 551.37 329.87 537.07 Z" />
</g>
<g id="#ffdf2dff">
<path fill="#ffdf2d" opacity="1.00" d=" M 246.19 579.93 C 254.41 579.20 262.67 579.69 270.91 579.49 C 280.78 579.59 290.67 579.19 300.54 579.75 C 322.00 580.35 343.49 579.84 364.96 580.01 C 385.51 579.84 406.08 580.35 426.63 579.74 C 436.40 579.35 446.18 579.66 455.96 579.57 C 479.61 579.73 503.28 579.25 526.92 579.81 C 551.55 580.13 576.21 580.15 600.84 579.80 C 651.23 579.24 701.64 579.68 752.04 579.52 C 759.69 579.49 767.35 579.51 775.01 579.54 C 777.57 579.52 780.15 579.88 782.52 580.92 C 783.24 581.56 783.97 582.20 784.72 582.85 C 787.87 586.85 789.40 591.79 791.48 596.37 C 804.38 625.73 817.33 655.07 830.25 684.42 C 831.71 687.89 833.65 691.23 834.46 694.94 C 834.44 700.43 829.67 705.77 824.03 705.63 C 812.08 705.70 800.12 705.64 788.18 705.66 C 603.76 705.71 419.34 705.73 234.93 705.67 C 223.27 705.63 211.61 705.71 199.95 705.62 C 193.41 705.79 187.53 698.27 190.34 692.07 C 204.11 659.88 218.00 627.74 231.69 595.51 C 233.69 591.05 235.07 586.11 238.41 582.44 C 240.95 581.45 243.56 580.63 246.19 579.93 Z" />
</g>
<g id="#ffc029ff">
<path fill="#ffc029" opacity="1.00" d=" M 234.93 705.67 C 419.34 705.73 603.76 705.71 788.18 705.66 C 788.32 758.77 788.22 811.88 788.20 864.99 C 788.58 870.39 784.82 875.46 779.92 877.42 C 776.46 878.84 772.65 878.23 769.03 878.35 C 595.35 878.37 421.67 878.28 247.99 878.31 C 242.57 878.43 237.30 874.72 235.60 869.58 C 234.79 866.15 234.94 862.60 234.90 859.11 C 234.90 807.96 234.85 756.82 234.93 705.67 Z" />
</g>
</svg>
