<svg xmlns="http://www.w3.org/2000/svg" width="1024pt" height="1024pt" viewBox="0 0 1024 1024">
    <path fill="#fff" d="M272.53 146.13c51.98.11 103.97.58 155.95.43l-.05.97c31.16-.16 62.32.19 93.47.2 4.04.12 8.12-.37 12.11.43 3.6-.82 7.3-.35 10.94 0 4.36.49 8.68-.79 13.05-.33 6.64.8 13.35.37 20.03.52 39.99.22 79.98.35 119.97.46 2.6 4.23 4.81 8.69 7.29 12.99.54 1.12 1.17 2.2 1.76 3.3.68 1.72 2.53 2.97 2.3 5.01-9.56 13.58-18.94 27.29-28.35 40.98-4.79 6.77-9.38 13.68-14.2 20.43-8.12 11.93-16.34 23.81-24.58 35.66-15.66 22.84-31.51 45.54-47.14 68.4-29.81.05-59.61-.15-89.41-.5-2.15 28.65-4.03 57.33-6.17 85.97 1.05 5 4.76 8.99 7.04 13.51 4.21.08 8.42.07 12.63-.07 1.25-11.18 2.89-22.35 5.46-33.31 2.42-10.88 9.43-21.13 19.77-25.81 7.95-4.28 17.04-5.83 26-4.93-2.52 5.18-6.22 9.62-9.36 14.4-35.03 50.66-69.89 101.42-105.01 152.01l-.23.31c-41.92-.25-83.86 0-125.79-.09 1.02-1.67 2.11-3.29 3.24-4.88 5.14-7.59 10.4-15.1 15.54-22.68 66.72-97.45 133.43-194.9 200.18-292.33 2.99-4.7 6.54-9.05 9.24-13.94-23.06-.12-46.12.42-69.19.41-13.96 1.25-28.01.77-42.02.98-18.63 1.4-37.35.71-56.03 1.06-5.95.23-11.95-.32-17.86.56-4.56.34-9.08 1.02-13.64 1.41l.07.65c-2.28.35-4.53.82-6.76 1.36-4.9 2.33-10.24 3.66-14.94 6.44-4.09 2.43-8.28 4.77-11.96 7.8-6.61 5.91-11.33 13.57-15.73 21.18-.74 1.65-1.34 3.35-1.95 5.05-.43.95-.83 1.93-1.2 2.91-.24 1.48-.47 2.96-.64 4.45l-.78.02-.33 3.53c-1.8 6.9-3.35 13.9-4.1 20.99-1.22 4.38-1.8 8.92-1.78 13.47l-.77-.04c-.15 4.71-1.39 9.33-1.2 14.06l-.81-.01c-.53 2.49.93 5.97-1.31 7.78-6.84.42-13.7.05-20.54.19-4.22-6.3-7.66-13.06-11.65-19.5-1.34-2.92-.63-6.2-.5-9.27 1.49-5.17.52-10.62 1.12-15.91 1.03-5.05.58-10.24.88-15.35l.8.05c0-5.18.01-10.38.45-15.55 1.13-4.57.06-9.38 1.35-13.93.32-4.09.17-8.21.52-12.3 1.49-5.45.11-11.2 1.46-16.68.33-4.08.18-8.17.46-12.25 1.55-4.81.44-9.95 1.14-14.89.88-5.44.64-10.96.81-16.45l.84.09c0-3.15.07-6.28.11-9.42" opacity=".6"/>
    <path fill="#fff" d="M774.59 316.1c40.2.24 80.4.54 120.6.7 1.11 1.94 2.2 3.89 3.3 5.85-34.97 49.49-69.38 99.37-104.56 148.71 12.72.22 25.42-.85 38.15-.88 10.64-.04 21.27-.6 31.91-.79 7.12.05 13.87-4.24 17.77-10.06 5.16-6.53 7.6-14.62 10.1-22.43 3.33.97 6.67 1.93 10.05 2.8-3.06 15.98-6.37 31.9-9.52 47.86-41.02.09-82.04.01-123.07.04.03-9.97 0-19.94 0-29.91-.14-1.32.34-2.51 1.13-3.53 28.51-40.89 56.9-81.86 85.42-122.75-17.29.51-34.58.79-51.87 1.08-7.65.1-15.84 3.86-18.92 11.24-2.43 6.29-2.92 13.13-3.87 19.75-2.07.01-4.12.02-6.17.02-1.15-1.96-2.31-3.91-3.48-5.84 1.11-13.95 1.99-27.91 3.03-41.86" opacity=".5"/>
    <path fill="#fff" d="M505.67 335.08c29.8.35 59.6.55 89.41.5 13.01.09 26.03.13 39.05.25.54.14 1.63.44 2.17.58l.68-1.13 1.05 1.5.68-1.18c1.36.51 2.78.73 4.25.64 37.37-.07 74.73.46 112.1.51 2.25 3.82 4.07 7.89 6.68 11.49-5.31 8.68-11.57 16.77-17.24 25.22-38.16 54.81-76.36 109.6-114.48 164.43-9.81 13.91-19.54 27.88-29.18 41.91-24.63.35-49.29.33-73.92.01 9.98-14.13 19.77-28.4 29.54-42.69 23.38-33.78 46.71-67.6 70.08-101.4 15.52-22.72 31.49-45.14 46.76-68.03-3.12.01-6.24.03-9.36.15-14.91 1.3-29.98.01-44.89 1.31-15.34.31-30.69.34-46.02.68-.88.22-1.76.43-2.63.61-8.96-.9-18.05.65-26 4.93-10.34 4.68-17.35 14.93-19.77 25.81-2.57 10.96-4.21 22.13-5.46 33.31-4.21.14-8.42.15-12.63.07-2.28-4.52-5.99-8.51-7.04-13.51 2.14-28.64 4.02-57.32 6.17-85.97"/>
    <g fill="#f5c32c">
        <path d="M229.13 553.05c13.36-5.94 26.93-11.41 40.44-16.99l-.04.15c-4.29 6.21-7.97 12.8-12.27 19.01-5.44 8.1-10.94 16.19-15.42 24.88 1.44-.05 2.9-.11 4.35-.17-2.63.7-5.24 1.52-7.78 2.51-18.22 7.56-36.28 15.52-54.49 23.13 12.84-15.39 25.58-30.87 38.31-46.36 2.05-2.29 3.95-4.97 6.9-6.16M758.33 544.55c-1.6-2.23-2.74-4.77-3.13-7.5 11.03 4.38 21.92 9.11 32.94 13.54 3.85 1.68 8.28 2.76 11.06 6.16 13.63 16.27 27.18 32.61 40.89 48.82-18.52-7.41-36.88-15.23-55.37-22.72-.75-.65-1.48-1.29-2.2-1.93-8.53-11.8-16.13-24.25-24.19-36.37"/>
    </g>
    <g fill="#ecb024">
        <path d="m269.57 536.06.17-.59c.83 1.01 1.89 1.47 3.18 1.37 18.98.18 37.96.31 56.95.23-9.67 14.3-19.25 28.67-29.33 42.68-9.87-.56-19.76-.16-29.63-.26-.07-12.17.03-24.33-.03-36.5-.01-2.33-.75-4.56-1.35-6.78zM455.8 537.16l.23-.31c33.47.6 66.96-.09 100.43.27-9.77 14.29-19.56 28.56-29.54 42.69-23.64-.56-47.31-.08-70.96-.24-9.78.09-19.56-.22-29.33.17 9.48-14.36 19.52-28.33 29.17-42.58M630.54 537.45c2.7-.84 5.61-.21 8.41-.38 37.52-.17 75.05.37 112.56-.35.67 14.26.28 28.53.53 42.8-50.4.16-100.81-.28-151.2.28 9.64-14.03 19.37-28 29.18-41.91z"/>
    </g>
    <g fill="#dfa510">
        <path d="M751.51 536.72c1.18-.43 2.41-.26 3.62.01l.07.32c.39 2.73 1.53 5.27 3.13 7.5 8.06 12.12 15.66 24.57 24.19 36.37-2.37-1.04-4.95-1.4-7.51-1.38-7.66-.03-15.32-.05-22.97-.02-.25-14.27.14-28.54-.53-42.8M269.53 536.21c.6 2.22 1.34 4.45 1.35 6.78.06 12.17-.04 24.33.03 36.5-8.24.2-16.5-.29-24.72.44-1.45.06-2.91.12-4.35.17 4.48-8.69 9.98-16.78 15.42-24.88 4.3-6.21 7.98-12.8 12.27-19.01"/>
    </g>
    <path fill="#f7dfa7" d="M329.87 537.07h.14c41.93.09 83.87-.16 125.79.09-9.65 14.25-19.69 28.22-29.17 42.58-20.55.61-41.12.1-61.67.27-21.47-.17-42.96.34-64.42-.26 10.08-14.01 19.66-28.38 29.33-42.68"/>
    <path fill="#ffdf2d" d="M246.19 579.93c8.22-.73 16.48-.24 24.72-.44 9.87.1 19.76-.3 29.63.26 21.46.6 42.95.09 64.42.26 20.55-.17 41.12.34 61.67-.27 9.77-.39 19.55-.08 29.33-.17 23.65.16 47.32-.32 70.96.24 24.63.32 49.29.34 73.92-.01 50.39-.56 100.8-.12 151.2-.28 7.65-.03 15.31-.01 22.97.02 2.56-.02 5.14.34 7.51 1.38.72.64 1.45 1.28 2.2 1.93 3.15 4 4.68 8.94 6.76 13.52 12.9 29.36 25.85 58.7 38.77 88.05 1.46 3.47 3.4 6.81 4.21 10.52-.02 5.49-4.79 10.83-10.43 10.69-11.95.07-23.91.01-35.85.03-184.42.05-368.84.07-553.25.01-11.66-.04-23.32.04-34.98-.05-6.54.17-12.42-7.35-9.61-13.55 13.77-32.19 27.66-64.33 41.35-96.56 2-4.46 3.38-9.4 6.72-13.07 2.54-.99 5.15-1.81 7.78-2.51"/>
    <path fill="#ffc029" d="M234.93 705.67c184.41.06 368.83.04 553.25-.01.14 53.11.04 106.22.02 159.33.38 5.4-3.38 10.47-8.28 12.43-3.46 1.42-7.27.81-10.89.93-173.68.02-347.36-.07-521.04-.04-5.42.12-10.69-3.59-12.39-8.73-.81-3.43-.66-6.98-.7-10.47 0-51.15-.05-102.29.03-153.44"/>
</svg>